<mxfile host="app.diagrams.net" modified="2024-05-08T19:54:17.896Z" agent="Mozilla/5.0 (Windows NT 10.0; Win64; x64) AppleWebKit/537.36 (KHTML, like Gecko) Chrome/124.0.0.0 Safari/537.36" etag="BD8bd6xTa6Bc2K6fpAy4" version="24.3.1" type="device">
  <diagram id="C5RBs43oDa-KdzZeNtuy" name="Page-1">
    <mxGraphModel dx="2074" dy="1152" grid="1" gridSize="10" guides="1" tooltips="1" connect="1" arrows="1" fold="1" page="1" pageScale="1" pageWidth="827" pageHeight="1169" math="0" shadow="0">
      <root>
        <mxCell id="WIyWlLk6GJQsqaUBKTNV-0" />
        <mxCell id="WIyWlLk6GJQsqaUBKTNV-1" parent="WIyWlLk6GJQsqaUBKTNV-0" />
        <mxCell id="zkfFHV4jXpPFQw0GAbJ--0" value="Breakthrough" style="swimlane;fontStyle=2;align=center;verticalAlign=top;childLayout=stackLayout;horizontal=1;startSize=26;horizontalStack=0;resizeParent=1;resizeLast=0;collapsible=1;marginBottom=0;rounded=0;shadow=0;strokeWidth=1;" parent="WIyWlLk6GJQsqaUBKTNV-1" vertex="1">
          <mxGeometry x="184" y="40" width="190" height="420" as="geometry">
            <mxRectangle x="230" y="140" width="160" height="26" as="alternateBounds" />
          </mxGeometry>
        </mxCell>
        <mxCell id="zkfFHV4jXpPFQw0GAbJ--2" value=" __Deck: CardCollection&#xa; __Hand: CardCollection&#xa; __Sequence: CardCollection&#xa; __Discard: CardCollection&#xa; __Score: int&#xa; __Locks: list&#xa; __CurrentLock: Lock&#xa; __LockSolved: bool&#xa; __GameOver: bool" style="text;align=left;verticalAlign=top;spacingLeft=4;spacingRight=4;overflow=hidden;rotatable=0;points=[[0,0.5],[1,0.5]];portConstraint=eastwest;rounded=0;shadow=0;html=0;" parent="zkfFHV4jXpPFQw0GAbJ--0" vertex="1">
          <mxGeometry y="26" width="190" height="164" as="geometry" />
        </mxCell>
        <mxCell id="zkfFHV4jXpPFQw0GAbJ--4" value="" style="line;html=1;strokeWidth=1;align=left;verticalAlign=middle;spacingTop=-1;spacingLeft=3;spacingRight=3;rotatable=0;labelPosition=right;points=[];portConstraint=eastwest;" parent="zkfFHV4jXpPFQw0GAbJ--0" vertex="1">
          <mxGeometry y="190" width="190" height="8" as="geometry" />
        </mxCell>
        <mxCell id="zkfFHV4jXpPFQw0GAbJ--5" value="PlayGame()&#xa;__ProcessLockSolved()&#xa;__CheckIfPlayerHasLost()&#xa;__SetupGame()&#xa;__PlayCardToSequence()&#xa;__CheckIfLockChallengeMet()&#xa;__LoadGame()&#xa;__LoadLocks()&#xa;__GetRandomLock()&#xa;__GetCardFromDeck()&#xa;__GetCardChoice()&#xa;__GetDiscardOrPlayChoice()&#xa;__GetChoice()" style="text;align=left;verticalAlign=top;spacingLeft=4;spacingRight=4;overflow=hidden;rotatable=0;points=[[0,0.5],[1,0.5]];portConstraint=eastwest;" parent="zkfFHV4jXpPFQw0GAbJ--0" vertex="1">
          <mxGeometry y="198" width="190" height="222" as="geometry" />
        </mxCell>
        <mxCell id="tyccWY9MU_X3IoAkyn_v-2" value="Class CardCollection" style="swimlane;fontStyle=2;align=center;verticalAlign=top;childLayout=stackLayout;horizontal=1;startSize=26;horizontalStack=0;resizeParent=1;resizeLast=0;collapsible=1;marginBottom=0;rounded=0;shadow=0;strokeWidth=1;" vertex="1" parent="WIyWlLk6GJQsqaUBKTNV-1">
          <mxGeometry x="484" y="40" width="160" height="200" as="geometry">
            <mxRectangle x="230" y="140" width="160" height="26" as="alternateBounds" />
          </mxGeometry>
        </mxCell>
        <mxCell id="tyccWY9MU_X3IoAkyn_v-3" value="_Name: str&#xa;_Cards: list" style="text;align=left;verticalAlign=top;spacingLeft=4;spacingRight=4;overflow=hidden;rotatable=0;points=[[0,0.5],[1,0.5]];portConstraint=eastwest;" vertex="1" parent="tyccWY9MU_X3IoAkyn_v-2">
          <mxGeometry y="26" width="160" height="54" as="geometry" />
        </mxCell>
        <mxCell id="tyccWY9MU_X3IoAkyn_v-6" value="" style="line;html=1;strokeWidth=1;align=left;verticalAlign=middle;spacingTop=-1;spacingLeft=3;spacingRight=3;rotatable=0;labelPosition=right;points=[];portConstraint=eastwest;" vertex="1" parent="tyccWY9MU_X3IoAkyn_v-2">
          <mxGeometry y="80" width="160" height="8" as="geometry" />
        </mxCell>
        <mxCell id="tyccWY9MU_X3IoAkyn_v-7" value="AddCard(card)&#xa;RemoveCard(cardNumber)&#xa;Shuffle()&#xa;GetCardNumberAt(index)&#xa;GetCardDisplay()&#xa;GetNumberOfCards()" style="text;align=left;verticalAlign=top;spacingLeft=4;spacingRight=4;overflow=hidden;rotatable=0;points=[[0,0.5],[1,0.5]];portConstraint=eastwest;" vertex="1" parent="tyccWY9MU_X3IoAkyn_v-2">
          <mxGeometry y="88" width="160" height="112" as="geometry" />
        </mxCell>
        <mxCell id="tyccWY9MU_X3IoAkyn_v-8" value="Person" style="swimlane;fontStyle=2;align=center;verticalAlign=top;childLayout=stackLayout;horizontal=1;startSize=26;horizontalStack=0;resizeParent=1;resizeLast=0;collapsible=1;marginBottom=0;rounded=0;shadow=0;strokeWidth=1;" vertex="1" parent="WIyWlLk6GJQsqaUBKTNV-1">
          <mxGeometry x="184" y="500" width="160" height="138" as="geometry">
            <mxRectangle x="230" y="140" width="160" height="26" as="alternateBounds" />
          </mxGeometry>
        </mxCell>
        <mxCell id="tyccWY9MU_X3IoAkyn_v-9" value="Name" style="text;align=left;verticalAlign=top;spacingLeft=4;spacingRight=4;overflow=hidden;rotatable=0;points=[[0,0.5],[1,0.5]];portConstraint=eastwest;" vertex="1" parent="tyccWY9MU_X3IoAkyn_v-8">
          <mxGeometry y="26" width="160" height="26" as="geometry" />
        </mxCell>
        <mxCell id="tyccWY9MU_X3IoAkyn_v-10" value="Phone Number" style="text;align=left;verticalAlign=top;spacingLeft=4;spacingRight=4;overflow=hidden;rotatable=0;points=[[0,0.5],[1,0.5]];portConstraint=eastwest;rounded=0;shadow=0;html=0;" vertex="1" parent="tyccWY9MU_X3IoAkyn_v-8">
          <mxGeometry y="52" width="160" height="26" as="geometry" />
        </mxCell>
        <mxCell id="tyccWY9MU_X3IoAkyn_v-11" value="Email Address" style="text;align=left;verticalAlign=top;spacingLeft=4;spacingRight=4;overflow=hidden;rotatable=0;points=[[0,0.5],[1,0.5]];portConstraint=eastwest;rounded=0;shadow=0;html=0;" vertex="1" parent="tyccWY9MU_X3IoAkyn_v-8">
          <mxGeometry y="78" width="160" height="26" as="geometry" />
        </mxCell>
        <mxCell id="tyccWY9MU_X3IoAkyn_v-12" value="" style="line;html=1;strokeWidth=1;align=left;verticalAlign=middle;spacingTop=-1;spacingLeft=3;spacingRight=3;rotatable=0;labelPosition=right;points=[];portConstraint=eastwest;" vertex="1" parent="tyccWY9MU_X3IoAkyn_v-8">
          <mxGeometry y="104" width="160" height="8" as="geometry" />
        </mxCell>
        <mxCell id="tyccWY9MU_X3IoAkyn_v-13" value="Purchase Parking Pass" style="text;align=left;verticalAlign=top;spacingLeft=4;spacingRight=4;overflow=hidden;rotatable=0;points=[[0,0.5],[1,0.5]];portConstraint=eastwest;" vertex="1" parent="tyccWY9MU_X3IoAkyn_v-8">
          <mxGeometry y="112" width="160" height="26" as="geometry" />
        </mxCell>
        <mxCell id="tyccWY9MU_X3IoAkyn_v-14" value="Person" style="swimlane;fontStyle=2;align=center;verticalAlign=top;childLayout=stackLayout;horizontal=1;startSize=26;horizontalStack=0;resizeParent=1;resizeLast=0;collapsible=1;marginBottom=0;rounded=0;shadow=0;strokeWidth=1;" vertex="1" parent="WIyWlLk6GJQsqaUBKTNV-1">
          <mxGeometry x="484" y="500" width="160" height="138" as="geometry">
            <mxRectangle x="230" y="140" width="160" height="26" as="alternateBounds" />
          </mxGeometry>
        </mxCell>
        <mxCell id="tyccWY9MU_X3IoAkyn_v-15" value="Name" style="text;align=left;verticalAlign=top;spacingLeft=4;spacingRight=4;overflow=hidden;rotatable=0;points=[[0,0.5],[1,0.5]];portConstraint=eastwest;" vertex="1" parent="tyccWY9MU_X3IoAkyn_v-14">
          <mxGeometry y="26" width="160" height="26" as="geometry" />
        </mxCell>
        <mxCell id="tyccWY9MU_X3IoAkyn_v-16" value="Phone Number" style="text;align=left;verticalAlign=top;spacingLeft=4;spacingRight=4;overflow=hidden;rotatable=0;points=[[0,0.5],[1,0.5]];portConstraint=eastwest;rounded=0;shadow=0;html=0;" vertex="1" parent="tyccWY9MU_X3IoAkyn_v-14">
          <mxGeometry y="52" width="160" height="26" as="geometry" />
        </mxCell>
        <mxCell id="tyccWY9MU_X3IoAkyn_v-17" value="Email Address" style="text;align=left;verticalAlign=top;spacingLeft=4;spacingRight=4;overflow=hidden;rotatable=0;points=[[0,0.5],[1,0.5]];portConstraint=eastwest;rounded=0;shadow=0;html=0;" vertex="1" parent="tyccWY9MU_X3IoAkyn_v-14">
          <mxGeometry y="78" width="160" height="26" as="geometry" />
        </mxCell>
        <mxCell id="tyccWY9MU_X3IoAkyn_v-18" value="" style="line;html=1;strokeWidth=1;align=left;verticalAlign=middle;spacingTop=-1;spacingLeft=3;spacingRight=3;rotatable=0;labelPosition=right;points=[];portConstraint=eastwest;" vertex="1" parent="tyccWY9MU_X3IoAkyn_v-14">
          <mxGeometry y="104" width="160" height="8" as="geometry" />
        </mxCell>
        <mxCell id="tyccWY9MU_X3IoAkyn_v-19" value="Purchase Parking Pass" style="text;align=left;verticalAlign=top;spacingLeft=4;spacingRight=4;overflow=hidden;rotatable=0;points=[[0,0.5],[1,0.5]];portConstraint=eastwest;" vertex="1" parent="tyccWY9MU_X3IoAkyn_v-14">
          <mxGeometry y="112" width="160" height="26" as="geometry" />
        </mxCell>
        <mxCell id="tyccWY9MU_X3IoAkyn_v-26" value="Person" style="swimlane;fontStyle=2;align=center;verticalAlign=top;childLayout=stackLayout;horizontal=1;startSize=26;horizontalStack=0;resizeParent=1;resizeLast=0;collapsible=1;marginBottom=0;rounded=0;shadow=0;strokeWidth=1;" vertex="1" parent="WIyWlLk6GJQsqaUBKTNV-1">
          <mxGeometry x="184" y="980" width="160" height="138" as="geometry">
            <mxRectangle x="230" y="140" width="160" height="26" as="alternateBounds" />
          </mxGeometry>
        </mxCell>
        <mxCell id="tyccWY9MU_X3IoAkyn_v-27" value="Name" style="text;align=left;verticalAlign=top;spacingLeft=4;spacingRight=4;overflow=hidden;rotatable=0;points=[[0,0.5],[1,0.5]];portConstraint=eastwest;" vertex="1" parent="tyccWY9MU_X3IoAkyn_v-26">
          <mxGeometry y="26" width="160" height="26" as="geometry" />
        </mxCell>
        <mxCell id="tyccWY9MU_X3IoAkyn_v-28" value="Phone Number" style="text;align=left;verticalAlign=top;spacingLeft=4;spacingRight=4;overflow=hidden;rotatable=0;points=[[0,0.5],[1,0.5]];portConstraint=eastwest;rounded=0;shadow=0;html=0;" vertex="1" parent="tyccWY9MU_X3IoAkyn_v-26">
          <mxGeometry y="52" width="160" height="26" as="geometry" />
        </mxCell>
        <mxCell id="tyccWY9MU_X3IoAkyn_v-29" value="Email Address" style="text;align=left;verticalAlign=top;spacingLeft=4;spacingRight=4;overflow=hidden;rotatable=0;points=[[0,0.5],[1,0.5]];portConstraint=eastwest;rounded=0;shadow=0;html=0;" vertex="1" parent="tyccWY9MU_X3IoAkyn_v-26">
          <mxGeometry y="78" width="160" height="26" as="geometry" />
        </mxCell>
        <mxCell id="tyccWY9MU_X3IoAkyn_v-30" value="" style="line;html=1;strokeWidth=1;align=left;verticalAlign=middle;spacingTop=-1;spacingLeft=3;spacingRight=3;rotatable=0;labelPosition=right;points=[];portConstraint=eastwest;" vertex="1" parent="tyccWY9MU_X3IoAkyn_v-26">
          <mxGeometry y="104" width="160" height="8" as="geometry" />
        </mxCell>
        <mxCell id="tyccWY9MU_X3IoAkyn_v-31" value="Purchase Parking Pass" style="text;align=left;verticalAlign=top;spacingLeft=4;spacingRight=4;overflow=hidden;rotatable=0;points=[[0,0.5],[1,0.5]];portConstraint=eastwest;" vertex="1" parent="tyccWY9MU_X3IoAkyn_v-26">
          <mxGeometry y="112" width="160" height="26" as="geometry" />
        </mxCell>
        <mxCell id="tyccWY9MU_X3IoAkyn_v-32" value="Person" style="swimlane;fontStyle=2;align=center;verticalAlign=top;childLayout=stackLayout;horizontal=1;startSize=26;horizontalStack=0;resizeParent=1;resizeLast=0;collapsible=1;marginBottom=0;rounded=0;shadow=0;strokeWidth=1;" vertex="1" parent="WIyWlLk6GJQsqaUBKTNV-1">
          <mxGeometry x="484" y="980" width="160" height="138" as="geometry">
            <mxRectangle x="230" y="140" width="160" height="26" as="alternateBounds" />
          </mxGeometry>
        </mxCell>
        <mxCell id="tyccWY9MU_X3IoAkyn_v-33" value="Name" style="text;align=left;verticalAlign=top;spacingLeft=4;spacingRight=4;overflow=hidden;rotatable=0;points=[[0,0.5],[1,0.5]];portConstraint=eastwest;" vertex="1" parent="tyccWY9MU_X3IoAkyn_v-32">
          <mxGeometry y="26" width="160" height="26" as="geometry" />
        </mxCell>
        <mxCell id="tyccWY9MU_X3IoAkyn_v-34" value="Phone Number" style="text;align=left;verticalAlign=top;spacingLeft=4;spacingRight=4;overflow=hidden;rotatable=0;points=[[0,0.5],[1,0.5]];portConstraint=eastwest;rounded=0;shadow=0;html=0;" vertex="1" parent="tyccWY9MU_X3IoAkyn_v-32">
          <mxGeometry y="52" width="160" height="26" as="geometry" />
        </mxCell>
        <mxCell id="tyccWY9MU_X3IoAkyn_v-35" value="Email Address" style="text;align=left;verticalAlign=top;spacingLeft=4;spacingRight=4;overflow=hidden;rotatable=0;points=[[0,0.5],[1,0.5]];portConstraint=eastwest;rounded=0;shadow=0;html=0;" vertex="1" parent="tyccWY9MU_X3IoAkyn_v-32">
          <mxGeometry y="78" width="160" height="26" as="geometry" />
        </mxCell>
        <mxCell id="tyccWY9MU_X3IoAkyn_v-36" value="" style="line;html=1;strokeWidth=1;align=left;verticalAlign=middle;spacingTop=-1;spacingLeft=3;spacingRight=3;rotatable=0;labelPosition=right;points=[];portConstraint=eastwest;" vertex="1" parent="tyccWY9MU_X3IoAkyn_v-32">
          <mxGeometry y="104" width="160" height="8" as="geometry" />
        </mxCell>
        <mxCell id="tyccWY9MU_X3IoAkyn_v-37" value="Purchase Parking Pass" style="text;align=left;verticalAlign=top;spacingLeft=4;spacingRight=4;overflow=hidden;rotatable=0;points=[[0,0.5],[1,0.5]];portConstraint=eastwest;" vertex="1" parent="tyccWY9MU_X3IoAkyn_v-32">
          <mxGeometry y="112" width="160" height="26" as="geometry" />
        </mxCell>
      </root>
    </mxGraphModel>
  </diagram>
</mxfile>
